<svg version="1" xmlns="http://www.w3.org/2000/svg" width="1041.333" height="1041.333" viewBox="0 0 781.000000 781.000000"><path d="M213.6 104.7c-11.4 25.9-19.4 54.7-24.3 87.3-1.5 10.4-1.7 26.3-2 160l-.4 148.6-38.9 38.9-39 39v109l39.3-39.3 39.2-39.2h62l39.2 39.2 39.3 39.3v-110l-39-39-39-39v-143c0-88.8-.4-147.2-1-154-3-32.3-11.8-66.7-24.4-96-2.7-6.1-5.1-11.4-5.5-11.8-.4-.4-2.9 4.1-5.5 10z"/><path d="M266 250v31h202.5l15.8 15.8 15.7 15.7v31l-15.8 15.8-15.7 15.7h-203l156 156 156 156h94l-125-125-125-125h79l30.8-30.8 30.7-30.7v-95l-30.8-30.8-30.7-30.7H266v31z"/></svg>